PathFileType	4	(X/Y/Z)	C:\Users\WrightLab\Desktop\Jo\P2_Trial38.trc
DataRate	CameraRate	NumFrames	NumMarkers	Units	OrigDataRate	OrigDataStartFrame	OrigNumFrames
100.00	100.00	      51	19	mm	100.00	1	      1099
Frame#	Time	Headset_Front			Headset_Back			Headset_Left			Headset_Right			Left_Shoulder			Right_Shoulder			Sternum			C7			Left Elbow			Right Elbow			Left Wrist			Right Wrist			Left ASIS			Right ASIS			S2			Left Knee			Right Knee			Left Ankle			Right Ankle			
		X1	Y1	Z1	X2	Y2	Z2	X3	Y3	Z3	X4	Y4	Z4	X5	Y5	Z5	X6	Y6	Z6	X7	Y7	Z7	X8	Y8	Z8	X9	Y9	Z9	X10	Y10	Z10	X11	Y11	Z11	X12	Y12	Z12	X13	Y13	Z13	X14	Y14	Z14	X15	Y15	Z15	X16	Y16	Z16	X17	Y17	Z17	X18	Y18	Z18	X19	Y19	Z19	

1	0.000																																														-564.46271	507.50684	2329.84229										
2	0.010																																														-564.90845	507.62933	2331.74268										
3	0.020																																														-564.94928	507.17230	2335.76929										
4	0.030																																														-565.33771	507.25473	2336.60522										
5	0.040																																														-565.65277	507.27328	2337.36035										
6	0.050																																														-565.84967	507.23129	2337.94629										
7	0.060																																														-566.16675	507.18127	2338.55908										
8	0.070																																														-566.21216	507.14114	2341.15283										
9	0.080																																														-566.25378	506.48318	2342.12207										
10	0.090																																														-566.53455	506.44315	2342.61401										
11	0.100																																														-566.85590	506.33728	2343.13013										
12	0.110																																														-567.22620	506.26849	2343.64233										
13	0.120																																														-567.41522	506.17264	2343.99585										
14	0.130																																														-567.71533	506.04993	2344.44141										
15	0.140																																														-567.81079	506.21933	2345.92969										
16	0.150																																														-567.78186	506.01260	2344.84570										
17	0.160																																														-567.35254	506.20178	2345.80005										
18	0.170																																														-566.71948	506.27829	2345.33496										
19	0.180																																														-565.83624	506.52310	2344.63281										
20	0.190																																														-564.48083	506.15347	2345.23511										
21	0.200																																														-563.61975	506.29861	2346.74243										
22	0.210																																														-562.54663	505.91165	2346.58301										
23	0.220																																														-561.45978	506.16409	2345.71411										
24	0.230																																														-560.35046	506.36005	2344.78223										
25	0.240																																														-559.09430	506.71344	2343.67114										
26	0.250																																														-558.22241	507.16763	2344.16113										
27	0.260																																														-556.49225	506.74112	2344.35840										
28	0.270																																														-554.69696	506.29010	2344.49976										
29	0.280																																														-553.29584	506.73981	2343.32227										
30	0.290																																														-552.21967	507.19043	2343.53711										
31	0.300																																														-550.43250	506.88275	2342.69653										
32	0.310																																														-548.49945	506.42480	2341.07568										
33	0.320																																														-543.93335	503.64905	2337.03125										
34	0.330																																														-544.80176	505.63916	2338.53809										
35	0.340																																														-542.84564	505.97321	2338.97998										
36	0.350																																														-540.87170	505.70206	2337.91992										
37	0.360																																														-539.11456	506.16183	2336.28809										
38	0.370																																														-536.36340	506.18130	2336.63037										
39	0.380																																														-534.15070	505.99899	2337.54834										
40	0.390																																														-531.16846	506.12415	2335.51587										
41	0.400																																														-528.84393	505.83670	2333.36694										
42	0.410																																														-525.37683	505.85245	2333.11011										
43	0.420																																														-522.33093	505.06982	2331.00171										
44	0.430																																														-518.02545	505.09320	2326.75659										
45	0.440																																														-515.28833	505.10941	2325.05664										
46	0.450																																														-511.40158	505.06329	2324.36060										
47	0.460																																														-506.84869	504.78159	2320.55493										
48	0.470																																														-502.02917	505.32629	2317.67700										
49	0.480																																														-496.78979	506.02219	2316.66260										
50	0.490																																											-349.23465	1008.38312	2477.44702	-490.68646	505.66605	2310.35303										
51	0.500																																											-346.00711	1009.64026	2476.68457	-483.91098	505.53925	2308.44995										
